<svg xmlns="http://www.w3.org/2000/svg" viewBox="0 0 200 200" width="200" height="200">
  <defs>
    <radialGradient id="bg" cx="50%" cy="50%" r="50%">
      <stop offset="0%" stop-color="#3D2B1F"/>
      <stop offset="100%" stop-color="#1A0E08"/>
    </radialGradient>
  </defs>
  <rect width="200" height="200" rx="16" fill="url(#bg)"/>
  
  <g transform="translate(100,100)">
    <path d="M-20,-40 Q-30,-30 -30,-15 Q-30,0 -20,10 L-15,35 L-5,35 L0,10 Q10,0 10,-15 Q10,-30 0,-40 Z" fill="#5C5040" stroke="#3D3020" stroke-width="2"/>
    <path d="M-18,-40 L-25,-55 L-12,-42" fill="#5C5040" stroke="#3D3020" stroke-width="1.5"/>
    <path d="M-2,-40 L5,-55 L12,-42" fill="#5C5040" stroke="#3D3020" stroke-width="1.5"/>
    <circle cx="-15" cy="-25" r="3" fill="#FFD700"/>
    <circle cx="-3" cy="-25" r="3" fill="#FFD700"/>
    <path d="M-12,-15 L-8,-8 M-8,-15 L-12,-8" stroke="#8B1A1A" stroke-width="1.5"/>
  </g>
</svg>