<svg xmlns="http://www.w3.org/2000/svg" viewBox="0 0 200 200" width="200" height="200">
  <defs>
    <radialGradient id="bg" cx="50%" cy="50%" r="50%">
      <stop offset="0%" stop-color="#3D2B1F"/>
      <stop offset="100%" stop-color="#1A0E08"/>
    </radialGradient>
  </defs>
  <rect width="200" height="200" rx="16" fill="url(#bg)"/>
  
  <g transform="translate(100,100)">
    <path d="M-15,-35 Q-25,-20 -25,0 Q-25,20 -10,35 L10,35 Q25,20 25,0 Q25,-20 15,-35 Z" fill="#E8DCC8" stroke="#8B7534" stroke-width="2" opacity="0.8"/>
    <circle cx="-8" cy="-15" r="4" fill="#000" opacity="0.9"/>
    <circle cx="8" cy="-15" r="4" fill="#000" opacity="0.9"/>
    <path d="M-5,5 Q0,12 5,5" fill="none" stroke="#8B1A1A" stroke-width="2"/>
    <path d="M-3,8 L-3,15" stroke="#E8DCC8" stroke-width="1.5"/>
    <path d="M3,8 L3,15" stroke="#E8DCC8" stroke-width="1.5"/>
    <path d="M-25,-10 Q-40,-5 -45,10" fill="none" stroke="#2E5A2E" stroke-width="4" stroke-linecap="round"/>
    <path d="M25,-10 Q40,-5 45,10" fill="none" stroke="#2E5A2E" stroke-width="4" stroke-linecap="round"/>
  </g>
</svg>