<svg xmlns="http://www.w3.org/2000/svg" viewBox="0 0 200 200" width="200" height="200">
  <defs>
    <radialGradient id="bg" cx="50%" cy="50%" r="50%">
      <stop offset="0%" stop-color="#3D2B1F"/>
      <stop offset="100%" stop-color="#1A0E08"/>
    </radialGradient>
  </defs>
  <rect width="200" height="200" rx="16" fill="url(#bg)"/>
  
  <g transform="translate(100,100)">
    <circle cx="0" cy="-10" r="25" fill="#2E5A2E" stroke="#1A3A1A" stroke-width="2" opacity="0.7"/>
    <g stroke="#2E5A2E" stroke-width="3" fill="none" stroke-linecap="round">
      <path d="M-15,-30 Q-20,-50 -10,-55"/>
      <path d="M-5,-33 Q-5,-55 5,-55"/>
      <path d="M5,-33 Q10,-55 15,-50"/>
      <path d="M15,-30 Q25,-48 20,-55"/>
      <path d="M-20,-25 Q-35,-40 -25,-50"/>
      <path d="M20,-25 Q35,-40 30,-48"/>
    </g>
    <circle cx="-8" cy="-12" r="4" fill="#8B1A1A" opacity="0.9"/>
    <circle cx="8" cy="-12" r="4" fill="#8B1A1A" opacity="0.9"/>
    <path d="M-5,5 Q0,10 5,5" fill="none" stroke="#2C1810" stroke-width="2"/>
  </g>
</svg>