<svg xmlns="http://www.w3.org/2000/svg" viewBox="0 0 200 200" width="200" height="200">
  <defs>
    <radialGradient id="bg" cx="50%" cy="50%" r="50%">
      <stop offset="0%" stop-color="#3D2B1F"/>
      <stop offset="100%" stop-color="#1A0E08"/>
    </radialGradient>
  </defs>
  <rect width="200" height="200" rx="16" fill="url(#bg)"/>
  
  <g transform="translate(100,100)">
    <ellipse cx="0" cy="20" rx="25" ry="18" fill="#2E5A2E" stroke="#1A3A1A" stroke-width="2"/>
    <g stroke="#2E5A2E" stroke-width="5" fill="none" stroke-linecap="round">
      <path d="M-8,5 Q-25,-20 -35,-40"/>
      <path d="M-3,3 Q-10,-25 -15,-45"/>
      <path d="M0,2 Q0,-30 0,-48"/>
      <path d="M3,3 Q10,-25 15,-45"/>
      <path d="M8,5 Q25,-20 35,-40"/>
    </g>
    <g fill="#2E5A2E" stroke="#1A3A1A" stroke-width="1">
      <circle cx="-35" cy="-40" r="6"/><circle cx="-15" cy="-45" r="6"/>
      <circle cx="0" cy="-48" r="6"/><circle cx="15" cy="-45" r="6"/>
      <circle cx="35" cy="-40" r="6"/>
    </g>
    <g fill="#8B1A1A" opacity="0.8">
      <circle cx="-35" cy="-42" r="1.5"/><circle cx="-15" cy="-47" r="1.5"/>
      <circle cx="0" cy="-50" r="1.5"/><circle cx="15" cy="-47" r="1.5"/>
      <circle cx="35" cy="-42" r="1.5"/>
    </g>
  </g>
</svg>