<svg xmlns="http://www.w3.org/2000/svg" viewBox="0 0 200 200" width="200" height="200">
  <defs>
    <radialGradient id="bg" cx="50%" cy="50%" r="50%">
      <stop offset="0%" stop-color="#3D2B1F"/>
      <stop offset="100%" stop-color="#1A0E08"/>
    </radialGradient>
  </defs>
  <rect width="200" height="200" rx="16" fill="url(#bg)"/>
  
  <g transform="translate(100,100)">
    <path d="M-20,-40 Q-30,-20 -25,5 Q-20,25 -10,40 L10,40 Q20,25 25,5 Q30,-20 20,-40 Z" fill="#4A2066" stroke="#6B3A8A" stroke-width="2" opacity="0.8"/>
    <circle cx="-8" cy="-15" r="5" fill="#8800FF" opacity="0.8"/>
    <circle cx="8" cy="-15" r="5" fill="#8800FF" opacity="0.8"/>
    <path d="M-5,5 Q0,15 5,5" fill="none" stroke="#6B3A8A" stroke-width="2"/>
    <g stroke="#6B3A8A" stroke-width="2" fill="none" opacity="0.5">
      <path d="M-25,5 Q-35,0 -40,10"/>
      <path d="M25,5 Q35,0 40,10"/>
      <path d="M-22,-10 Q-35,-15 -42,-5"/>
      <path d="M22,-10 Q35,-15 42,-5"/>
    </g>
  </g>
</svg>