<svg xmlns="http://www.w3.org/2000/svg" viewBox="0 0 200 200" width="200" height="200">
  <defs>
    <radialGradient id="bg" cx="50%" cy="50%" r="50%">
      <stop offset="0%" stop-color="#3D2B1F"/>
      <stop offset="100%" stop-color="#1A0E08"/>
    </radialGradient>
  </defs>
  <rect width="200" height="200" rx="16" fill="url(#bg)"/>
  
  <g transform="translate(100,100)">
    <path d="M-20,-15 Q-25,10 -18,35 L-8,55 L8,55 L18,35 Q25,10 20,-15 Z" fill="#8B6914" stroke="#5C4033" stroke-width="2"/>
    <circle cx="0" cy="-25" r="18" fill="#8B6914" stroke="#5C4033" stroke-width="2"/>
    <path d="M-18,-30 Q-25,-45 -35,-50 Q-30,-42 -25,-35" fill="#8B6914" stroke="#5C4033" stroke-width="2"/>
    <path d="M18,-30 Q25,-45 35,-50 Q30,-42 25,-35" fill="#8B6914" stroke="#5C4033" stroke-width="2"/>
    <circle cx="-7" cy="-28" r="3" fill="#8B1A1A" opacity="0.8"/>
    <circle cx="7" cy="-28" r="3" fill="#8B1A1A" opacity="0.8"/>
    <ellipse cx="0" cy="-15" rx="8" ry="5" fill="#8B6914" stroke="#5C4033" stroke-width="1"/>
    <circle cx="-3" cy="-15" r="1.5" fill="#2C1810"/><circle cx="3" cy="-15" r="1.5" fill="#2C1810"/>
  </g>
</svg>