<svg xmlns="http://www.w3.org/2000/svg" viewBox="0 0 200 200" width="200" height="200">
  <defs>
    <radialGradient id="bg" cx="50%" cy="50%" r="50%">
      <stop offset="0%" stop-color="#3D2B1F"/>
      <stop offset="100%" stop-color="#1A0E08"/>
    </radialGradient>
  </defs>
  <rect width="200" height="200" rx="16" fill="url(#bg)"/>
  
  <g transform="translate(100,100)">
    <ellipse cx="0" cy="15" rx="25" ry="18" fill="#E8DCC8" stroke="#8B7534" stroke-width="2"/>
    <path d="M-20,0 L-18,-25 Q0,-35 18,-25 L20,0" fill="#E8DCC8" stroke="#8B7534" stroke-width="2"/>
    <circle cx="0" cy="-32" r="10" fill="#E8DCC8" stroke="#8B7534" stroke-width="2"/>
    <circle cx="-3" cy="-34" r="2" fill="#2C1810"/>
    <path d="M-20,5 Q-45,-15 -55,-35 Q-45,-25 -35,-30 Q-40,-10 -20,5" fill="#E8DCC8" stroke="#8B7534" stroke-width="1.5"/>
    <path d="M20,5 Q45,-15 55,-35 Q45,-25 35,-30 Q40,-10 20,5" fill="#E8DCC8" stroke="#8B7534" stroke-width="1.5"/>
    <rect x="-15" y="30" width="5" height="22" rx="2" fill="#E8DCC8" stroke="#8B7534" stroke-width="1"/>
    <rect x="10" y="30" width="5" height="22" rx="2" fill="#E8DCC8" stroke="#8B7534" stroke-width="1"/>
  </g>
</svg>