<svg xmlns="http://www.w3.org/2000/svg" viewBox="0 0 200 200" width="200" height="200">
  <defs>
    <radialGradient id="bg" cx="50%" cy="50%" r="50%">
      <stop offset="0%" stop-color="#3D2B1F"/>
      <stop offset="100%" stop-color="#1A0E08"/>
    </radialGradient>
  </defs>
  <rect width="200" height="200" rx="16" fill="url(#bg)"/>
  
  <g transform="translate(100,100)">
    <path d="M-15,-10 Q-20,10 -15,35 L15,35 Q20,10 15,-10 Z" fill="#2E5A2E" stroke="#1A3A1A" stroke-width="2"/>
    <path d="M-15,-10 L-12,-40 Q0,-50 12,-40 L15,-10" fill="#2E5A2E" stroke="#1A3A1A" stroke-width="2"/>
    <circle cx="-5" cy="-32" r="3.5" fill="#FFD700" opacity="0.9"/>
    <circle cx="5" cy="-32" r="3.5" fill="#FFD700" opacity="0.9"/>
    <circle cx="-5" cy="-32" r="1.5" fill="#2C1810"/>
    <circle cx="5" cy="-32" r="1.5" fill="#2C1810"/>
    <path d="M-2,-22 L-3,-17 M2,-22 L3,-17" stroke="#1A3A1A" stroke-width="1"/>
    <g fill="none" stroke="#1A3A1A" stroke-width="1" opacity="0.5">
      <path d="M-12,-5 Q0,0 12,-5"/><path d="M-13,5 Q0,10 13,5"/>
      <path d="M-14,15 Q0,20 14,15"/><path d="M-15,25 Q0,30 15,25"/>
    </g>
  </g>
</svg>