<svg xmlns="http://www.w3.org/2000/svg" viewBox="0 0 200 200" width="200" height="200">
  <defs>
    <radialGradient id="bg" cx="50%" cy="50%" r="50%">
      <stop offset="0%" stop-color="#3D2B1F"/>
      <stop offset="100%" stop-color="#1A0E08"/>
    </radialGradient>
  </defs>
  <rect width="200" height="200" rx="16" fill="url(#bg)"/>
  
  <g transform="translate(100,100)">
    <path d="M-35,-50 L-40,-10 L-40,40 L40,40 L40,-10 L35,-50 Z" fill="#8B6914" stroke="#6B4F12" stroke-width="2"/>
    <!-- Scale pattern -->
    <g fill="#6B4F12" stroke="#5C4033" stroke-width="1">
      <ellipse cx="-20" cy="-35" rx="10" ry="7"/><ellipse cx="0" cy="-35" rx="10" ry="7"/><ellipse cx="20" cy="-35" rx="10" ry="7"/>
      <ellipse cx="-10" cy="-22" rx="10" ry="7"/><ellipse cx="10" cy="-22" rx="10" ry="7"/>
      <ellipse cx="-20" cy="-9" rx="10" ry="7"/><ellipse cx="0" cy="-9" rx="10" ry="7"/><ellipse cx="20" cy="-9" rx="10" ry="7"/>
      <ellipse cx="-10" cy="4" rx="10" ry="7"/><ellipse cx="10" cy="4" rx="10" ry="7"/>
      <ellipse cx="-20" cy="17" rx="10" ry="7"/><ellipse cx="0" cy="17" rx="10" ry="7"/><ellipse cx="20" cy="17" rx="10" ry="7"/>
    </g>
  </g>
</svg>