<svg xmlns="http://www.w3.org/2000/svg" viewBox="0 0 200 200" width="200" height="200">
  <defs>
    <radialGradient id="bg" cx="50%" cy="50%" r="50%">
      <stop offset="0%" stop-color="#3D2B1F"/>
      <stop offset="100%" stop-color="#1A0E08"/>
    </radialGradient>
  </defs>
  <rect width="200" height="200" rx="16" fill="url(#bg)"/>
  
  <g transform="translate(100,100)">
    <path d="M-35,-50 L-40,-10 L-40,40 L40,40 L40,-10 L35,-50 Z" fill="#8B6914" stroke="#6B4F12" stroke-width="2"/>
    <!-- Rings pattern -->
    <g fill="none" stroke="#8899AA" stroke-width="2">
      <circle cx="-20" cy="-30" r="5"/><circle cx="-5" cy="-30" r="5"/><circle cx="10" cy="-30" r="5"/><circle cx="25" cy="-30" r="5"/>
      <circle cx="-25" cy="-15" r="5"/><circle cx="-10" cy="-15" r="5"/><circle cx="5" cy="-15" r="5"/><circle cx="20" cy="-15" r="5"/>
      <circle cx="-20" cy="0" r="5"/><circle cx="-5" cy="0" r="5"/><circle cx="10" cy="0" r="5"/><circle cx="25" cy="0" r="5"/>
      <circle cx="-25" cy="15" r="5"/><circle cx="-10" cy="15" r="5"/><circle cx="5" cy="15" r="5"/><circle cx="20" cy="15" r="5"/>
    </g>
  </g>
</svg>