<svg xmlns="http://www.w3.org/2000/svg" viewBox="0 0 200 200" width="200" height="200">
  <defs>
    <radialGradient id="bg" cx="50%" cy="50%" r="50%">
      <stop offset="0%" stop-color="#3D2B1F"/>
      <stop offset="100%" stop-color="#1A0E08"/>
    </radialGradient>
  </defs>
  <rect width="200" height="200" rx="16" fill="url(#bg)"/>
  
  <g transform="translate(100,100)">
    <rect x="-30" y="-42" width="60" height="84" rx="4" fill="#8B1A1A" stroke="#C4A035" stroke-width="2.5"/>
    <rect x="-32" y="-40" width="4" height="80" rx="1" fill="#8B7534" stroke="#8B7534" stroke-width="1"/>
    <rect x="-24" y="-36" width="48" height="72" rx="2" fill="#E8DCC8" stroke="#8B7534" stroke-width="1" opacity="0.3"/>
    <g stroke="#2C1810" stroke-width="1" opacity="0.25">
      <line x1="-18" y1="-25" x2="22" y2="-25"/>
      <line x1="-18" y1="-15" x2="22" y2="-15"/>
      <line x1="-18" y1="-5" x2="18" y2="-5"/>
      <line x1="-18" y1="5" x2="22" y2="5"/>
      <line x1="-18" y1="15" x2="15" y2="15"/>
    </g>
    <path d="M-5,-30 L0,-38 L5,-30 M-3,-30 L0,-34 L3,-30" fill="none" stroke="#C4A035" stroke-width="1.5"/>
    <circle cx="0" cy="30" r="6" fill="#C4A035" stroke="#8B7534" stroke-width="1"/>
  </g>
</svg>