<svg xmlns="http://www.w3.org/2000/svg" viewBox="0 0 200 200" width="200" height="200">
  <defs>
    <radialGradient id="bg" cx="50%" cy="50%" r="50%">
      <stop offset="0%" stop-color="#3D2B1F"/>
      <stop offset="100%" stop-color="#1A0E08"/>
    </radialGradient>
  </defs>
  <rect width="200" height="200" rx="16" fill="url(#bg)"/>
  
  <g transform="translate(100,100)">
    <circle cx="0" cy="0" r="45" fill="none" stroke="#6B3A8A" stroke-width="2" opacity="0.5"/>
    <circle cx="0" cy="0" r="35" fill="none" stroke="#6B3A8A" stroke-width="1.5" opacity="0.3"/>
    <g stroke="#6B3A8A" stroke-width="1" opacity="0.3">
      <line x1="0" y1="-45" x2="0" y2="45"/>
      <line x1="-45" y1="0" x2="45" y2="0"/>
      <line x1="-32" y1="-32" x2="32" y2="32"/>
      <line x1="32" y1="-32" x2="-32" y2="32"/>
    </g>
    <polygon points="0,-30 8,-10 28,-10 12,4 18,25 0,14 -18,25 -12,4 -28,-10 -8,-10" fill="#4A2066" stroke="#6B3A8A" stroke-width="2" opacity="0.7"/>
    <circle cx="0" cy="0" r="8" fill="#6B3A8A" opacity="0.5"/>
    <circle cx="0" cy="0" r="3" fill="#E8DCC8" opacity="0.7"/>
    <g fill="#6B3A8A" opacity="0.4">
      <circle cx="0" cy="-42" r="3"/><circle cx="0" cy="42" r="3"/>
      <circle cx="-42" cy="0" r="3"/><circle cx="42" cy="0" r="3"/>
    </g>
  </g>
</svg>